<svg width="149" height="175" viewBox="0 0 149 175" fill="none" xmlns="http://www.w3.org/2000/svg">
    <path
        d="M115.944 81.1091C115.198 80.7478 114.44 80.4001 113.672 80.0671C112.335 55.178 98.8763 40.929 76.2769 40.7832C76.1745 40.7826 76.0727 40.7826 75.9703 40.7826C62.4529 40.7826 51.2107 46.6128 44.2912 57.222L56.7202 65.8372C61.8893 57.9125 70.0018 56.2231 75.9763 56.2231C76.0453 56.2231 76.1145 56.2231 76.1828 56.2238C83.624 56.2717 89.2391 58.4578 92.8733 62.7211C95.5181 65.8249 97.2869 70.1139 98.1628 75.5269C91.5654 74.3939 84.4304 74.0455 76.8029 74.4874C55.3164 75.738 41.5031 88.4004 42.4309 105.995C42.9016 114.92 47.3019 122.598 54.8205 127.614C61.1775 131.854 69.3648 133.928 77.8738 133.458C89.111 132.836 97.9265 128.504 104.076 120.582C108.747 114.567 111.701 106.771 113.006 96.9482C118.361 100.214 122.33 104.511 124.522 109.678C128.249 118.46 128.466 132.891 116.813 144.656C106.603 154.962 94.3301 159.421 75.7822 159.559C55.2077 159.405 39.6474 152.738 29.5306 139.742C20.057 127.573 15.161 109.997 14.9783 87.5C15.161 65.0032 20.057 47.4265 29.5306 35.2577C39.6474 22.2623 55.2074 15.5951 75.782 15.4406C96.5058 15.5962 112.337 22.2955 122.841 35.3536C127.992 41.7572 131.875 49.8101 134.435 59.1995L149 55.2728C145.897 43.7155 141.014 33.7565 134.37 25.4971C120.904 8.75609 101.209 0.177869 75.8327 0H75.7312C50.4066 0.177251 30.9323 8.7881 17.8495 25.5931C6.20764 40.5475 0.202414 61.3555 0.000631414 87.4385L0 87.5L0.000631414 87.5615C0.202414 113.644 6.20764 134.453 17.8495 149.407C30.9323 166.212 50.4066 174.823 75.7312 175H75.8327C98.3477 174.842 114.218 168.886 127.292 155.687C144.397 138.42 143.882 116.775 138.244 103.488C134.2 93.9595 126.488 86.2205 115.944 81.1091ZM77.0694 118.04C67.6523 118.576 57.8688 114.305 57.3864 105.157C57.0289 98.3737 62.1637 90.8049 77.6473 89.9033C79.4205 89.8 81.1605 89.7495 82.8699 89.7495C88.494 89.7495 93.7555 90.3015 98.5389 91.3582C96.7547 113.873 86.2895 117.529 77.0694 118.04Z"
        fill="white" />
</svg>
    