<svg width="24" height="24" viewBox="0 0 24 24" fill="none" xmlns="http://www.w3.org/2000/svg">
    <path
        d="M16.86 17.4055C15.4614 18.4716 13.7584 19.0622 12 19.0909C6.27273 19.0909 3 12.5455 3 12.5455C4.01773 10.6488 5.42929 8.99179 7.14 7.68548M10.2818 6.19638C10.845 6.06456 11.4216 5.99866 12 6.00002C17.7273 6.00002 21 12.5455 21 12.5455C20.5033 13.4746 19.911 14.3493 19.2327 15.1555M13.7345 14.28C13.5098 14.5212 13.2388 14.7146 12.9378 14.8488C12.6367 14.9829 12.3116 15.0551 11.9821 15.0609C11.6525 15.0667 11.3251 15.0061 11.0195 14.8826C10.7139 14.7592 10.4362 14.5754 10.2031 14.3423C9.97007 14.1092 9.78632 13.8316 9.66287 13.526C9.53942 13.2203 9.47879 12.893 9.48461 12.5634C9.49042 12.2338 9.56256 11.9088 9.69672 11.6077C9.83087 11.3066 10.0243 11.0356 10.2655 10.8109"
        stroke="white" stroke-width="2" stroke-linecap="round" stroke-linejoin="round" />
    <path d="M3 3L21 21" stroke="white" stroke-width="2" stroke-linecap="round"
        stroke-linejoin="round" />
</svg>
    