<svg width="25" height="25" viewBox="0 0 25 25" fill="none" xmlns="http://www.w3.org/2000/svg">
    <path
        d="M14 21C13.8476 21.3042 13.6288 21.5566 13.3655 21.7321C13.1023 21.9076 12.8038 22 12.5 22C12.1962 22 11.8977 21.9076 11.6345 21.7321C11.3712 21.5566 11.1524 21.3042 11 21"
        stroke="white" stroke-width="2" stroke-linecap="round" stroke-linejoin="round" />
    <path d="M18 14C17.2964 12.6971 16.961 11.3504 17.0036 10" stroke="white" stroke-width="2"
        stroke-linecap="round" stroke-linejoin="round" />
    <path d="M7.79429 9C7.64537 9.4723 7.57024 9.96387 7.57143 10.4581C7.57143 16.324 5 18 5 18H17"
        stroke="white" stroke-width="2" stroke-linecap="round" stroke-linejoin="round" />
    <path
        d="M17 10C17.0012 9.09556 16.7809 8.20775 16.3625 7.43139C15.9442 6.65503 15.3435 6.01929 14.6247 5.59207C13.906 5.16486 13.096 4.96222 12.2815 5.0058C11.4669 5.04938 10.6784 5.33754 10 5.83951"
        stroke="white" stroke-width="2" stroke-linecap="round" stroke-linejoin="round" />
    <path d="M5 3L21 20" stroke="white" stroke-width="2" stroke-linecap="round"
        stroke-linejoin="round" />
</svg>
    