<svg width="25" height="25" viewBox="0 0 25 25" fill="none" xmlns="http://www.w3.org/2000/svg">
    <path fill-rule="evenodd" clip-rule="evenodd"
        d="M9 12.7241C9 13.5525 8.32843 14.2241 7.5 14.2241C6.67157 14.2241 6 13.5525 6 12.7241C6 11.8957 6.67157 11.2241 7.5 11.2241C8.32843 11.2241 9 11.8957 9 12.7241ZM14 12.7241C14 13.5525 13.3284 14.2241 12.5 14.2241C11.6716 14.2241 11 13.5525 11 12.7241C11 11.8957 11.6716 11.2241 12.5 11.2241C13.3284 11.2241 14 11.8957 14 12.7241ZM17.5 14.2241C18.3284 14.2241 19 13.5525 19 12.7241C19 11.8957 18.3284 11.2241 17.5 11.2241C16.6716 11.2241 16 11.8957 16 12.7241C16 13.5525 16.6716 14.2241 17.5 14.2241Z"
        fill="white" />
</svg>
    