<svg width="24" height="20" viewBox="0 0 24 20" fill="none" xmlns="http://www.w3.org/2000/svg">
    <path fill-rule="evenodd" clip-rule="evenodd"
        d="M8.89212 3.43262C7.65321 3.43262 6.64887 4.43695 6.64887 5.67586C6.64887 6.91477 7.65321 7.9191 8.89212 7.9191C10.131 7.9191 11.1354 6.91477 11.1354 5.67586C11.1354 4.43695 10.131 3.43262 8.89212 3.43262ZM4.64887 5.67586C4.64887 3.33238 6.54864 1.43262 8.89212 1.43262C11.2356 1.43262 13.1354 3.33238 13.1354 5.67586C13.1354 8.01934 11.2356 9.9191 8.89212 9.9191C6.54864 9.9191 4.64887 8.01934 4.64887 5.67586ZM3.05385 12.4052C3.84961 11.6094 4.9289 11.1623 6.05428 11.1623H11.73C12.8553 11.1623 13.9346 11.6094 14.7304 12.4052C15.5261 13.2009 15.9732 14.2802 15.9732 15.4056V17.0272C15.9732 17.5795 15.5255 18.0272 14.9732 18.0272C14.4209 18.0272 13.9732 17.5795 13.9732 17.0272V15.4056C13.9732 14.8106 13.7369 14.2401 13.3162 13.8194C12.8955 13.3987 12.3249 13.1623 11.73 13.1623H6.05428C5.45933 13.1623 4.88876 13.3987 4.46807 13.8194C4.04738 14.2401 3.81104 14.8106 3.81104 15.4056V17.0272C3.81104 17.5795 3.36332 18.0272 2.81104 18.0272C2.25875 18.0272 1.81104 17.5795 1.81104 17.0272V15.4056C1.81104 14.2802 2.25809 13.2009 3.05385 12.4052ZM15.784 7.9191C15.2317 7.9191 14.784 8.36682 14.784 8.9191C14.784 9.47139 15.2317 9.9191 15.784 9.9191H20.6489C21.2012 9.9191 21.6489 9.47139 21.6489 8.9191C21.6489 8.36682 21.2012 7.9191 20.6489 7.9191H15.784Z"
        fill="white" />
</svg>
    